<?xml version="1.0" standalone="no"?>
<!DOCTYPE svg PUBLIC "-//W3C//DTD SVG 20010904//EN"
 "http://www.w3.org/TR/2001/REC-SVG-20010904/DTD/svg10.dtd">
<svg version="1.0" xmlns="http://www.w3.org/2000/svg"
 width="512.000000pt" height="512.000000pt" viewBox="0 0 512.000000 512.000000"
 preserveAspectRatio="xMidYMid meet">
<metadata>
Created by potrace 1.14, written by Peter Selinger 2001-2017
</metadata>
<g transform="translate(0.000000,512.000000) scale(0.100000,-0.100000)"
fill="#000000" stroke="none">
<path d="M3230 4200 c-192 -18 -278 -45 -343 -108 -181 -175 -465 -919 -827
-2159 -18 -62 -31 -85 -100 -165 -78 -91 -98 -105 -151 -107 -23 -1 -28 4 -34
37 -9 51 -47 114 -87 144 -141 107 -325 127 -482 53 -61 -29 -142 -110 -173
-173 -72 -146 -5 -416 125 -506 20 -14 59 -35 86 -47 67 -29 152 -23 227 17
67 35 181 149 233 231 27 43 52 69 84 86 l45 25 -33 17 c-18 9 -28 20 -24 25
9 8 145 32 151 26 2 -2 -12 -15 -32 -30 -42 -33 -38 -46 16 -46 55 0 76 -14
90 -59 11 -38 10 -41 -23 -83 -56 -68 -103 -147 -133 -223 -36 -90 -38 -172
-6 -275 19 -63 31 -83 75 -126 71 -69 143 -97 251 -97 231 0 370 164 370 438
0 88 -3 107 -27 158 -73 155 -240 254 -380 224 -35 -7 -38 -6 -44 18 -5 20 5
44 42 106 45 74 58 87 174 172 1041 761 1665 1300 1737 1502 41 115 47 156 35
237 -6 44 -28 128 -48 186 -39 114 -122 302 -134 302 -4 0 -239 -269 -522
-597 -283 -329 -534 -618 -557 -643 -43 -47 21 67 508 910 125 216 211 376
211 391 0 14 14 50 30 81 l30 56 -22 6 c-30 8 -231 5 -338 -4z m-1760 -2380
c17 -6 9 -7 -25 -3 -47 5 -135 -6 -180 -23 -11 -4 -17 -4 -13 0 26 29 160 45
218 26z m68 -101 c65 -32 102 -69 102 -101 0 -61 -116 -205 -200 -248 -90 -46
-195 -21 -265 62 -92 109 -65 214 74 285 56 29 72 33 145 33 72 0 91 -4 144
-31z m747 -465 c50 -23 116 -89 134 -131 19 -46 6 -113 -32 -170 -77 -115
-253 -145 -367 -62 -108 78 -105 175 10 302 77 87 160 106 255 61z m-82 -531
c-13 -2 -35 -2 -50 0 -16 2 -5 4 22 4 28 0 40 -2 28 -4z"/>
</g>
</svg>
